<svg width="48" height="49" viewBox="0 0 48 49" fill="none" xmlns="http://www.w3.org/2000/svg">
<g clip-path="url(#clip0_964_18504)">
<path d="M42.5886 13.0255H37.519V7.95592C37.519 7.05955 37.1629 6.1999 36.5291 5.56608C35.8953 4.93225 35.0356 4.57617 34.1393 4.57617H13.8608C12.9644 4.57617 12.1048 4.93225 11.4709 5.56608C10.8371 6.1999 10.481 7.05955 10.481 7.95592V13.0255H5.41142C4.06687 13.0255 2.77739 13.5597 1.82665 14.5104C0.875916 15.4611 0.341797 16.7506 0.341797 18.0952V41.7534C0.341797 42.6497 0.697876 43.5094 1.3317 44.1432C1.96553 44.7771 2.82518 45.1331 3.72154 45.1331H44.2785C45.1749 45.1331 46.0345 44.7771 46.6683 44.1432C47.3022 43.5094 47.6583 42.6497 47.6583 41.7534V18.0952C47.6583 16.7506 47.1241 15.4611 46.1734 14.5104C45.2227 13.5597 43.9332 13.0255 42.5886 13.0255ZM13.8608 7.95592H34.1393V13.0255H13.8608V7.95592ZM44.2785 41.7534H3.72154V26.5445H17.2405V34.9939H30.7595V26.5445H44.2785V41.7534ZM20.6203 26.5445H27.3798V31.6141H20.6203V26.5445ZM3.72154 23.1648V18.0952C3.72154 17.647 3.89958 17.2172 4.2165 16.9002C4.53341 16.5833 4.96323 16.4053 5.41142 16.4053H42.5886C43.0368 16.4053 43.4666 16.5833 43.7836 16.9002C44.1005 17.2172 44.2785 17.647 44.2785 18.0952V23.1648H3.72154Z" fill="#0D5C63"/>
</g>
<defs>
<clipPath id="clip0_964_18504">
<rect width="48" height="40.7089" fill="white" transform="translate(0 4.5)"/>
</clipPath>
</defs>
</svg>
